<svg width="32" height="32" viewBox="0 0 32 32" fill="none" xmlns="http://www.w3.org/2000/svg">
  <defs>
    <linearGradient id="fav-gradient" x1="16" y1="2" x2="16" y2="28">
      <stop offset="0%" style="stop-color:#FCD34D"/>
      <stop offset="25%" style="stop-color:#FB923C"/>
      <stop offset="50%" style="stop-color:#38BDF8"/>
      <stop offset="100%" style="stop-color:#0369A1"/>
    </linearGradient>
    <linearGradient id="fav-green" x1="0%" y1="100%" x2="100%" y2="0%">
      <stop offset="0%" style="stop-color:#15803D"/>
      <stop offset="100%" style="stop-color:#86EFAC"/>
    </linearGradient>
    <filter id="fav-glow">
      <feGaussianBlur stdDeviation="0.8" result="coloredBlur"/>
      <feMerge>
        <feMergeNode in="coloredBlur"/>
        <feMergeNode in="SourceGraphic"/>
      </feMerge>
    </filter>
  </defs>
  
  <!-- Droplet shape -->
  <path d="M16 2 C16 2, 11 8, 10 14 C9 20, 10 24, 13 27 C14 28, 16 29, 16 29 C16 29, 18 28, 19 27 C22 24, 23 20, 22 14 C21 8, 16 2, 16 2 Z" 
        fill="url(#fav-gradient)" 
        stroke="#0C4A6E" 
        stroke-width="0.5"/>
  
  <!-- Green accent -->
  <path d="M10 18 C9.5 20, 10 23, 12 26 C11 24, 10 21, 10.5 19 Z" 
        fill="url(#fav-green)" 
        opacity="0.6"/>
  
  <!-- Circuit pattern -->
  <g stroke="#FFFFFF" stroke-width="1.2" fill="none" opacity="0.95" filter="url(#fav-glow)" stroke-linecap="round">
    <line x1="16" y1="9" x2="16" y2="23"/>
    <path d="M16 12 L12 12 L12 14"/>
    <path d="M16 16 L20 16 L20 18"/>
    <path d="M16 20 L12 20"/>
  </g>
  
  <!-- Circuit nodes -->
  <g filter="url(#fav-glow)">
    <circle cx="16" cy="9" r="1.8" fill="#60D5FA" stroke="#FFFFFF" stroke-width="0.5"/>
    <circle cx="16" cy="23" r="1.8" fill="#60D5FA" stroke="#FFFFFF" stroke-width="0.5"/>
    <circle cx="12" cy="12" r="1.5" fill="#86EFAC" stroke="#FFFFFF" stroke-width="0.5"/>
    <circle cx="12" cy="14" r="1.5" fill="#86EFAC" stroke="#FFFFFF" stroke-width="0.5"/>
    <circle cx="20" cy="16" r="1.5" fill="#FCD34D" stroke="#FFFFFF" stroke-width="0.5"/>
    <circle cx="20" cy="18" r="1.5" fill="#FCD34D" stroke="#FFFFFF" stroke-width="0.5"/>
    <circle cx="12" cy="20" r="1.5" fill="#60D5FA" stroke="#FFFFFF" stroke-width="0.5"/>
  </g>
</svg>
